<?xml version="1.0" encoding="iso-8859-1"?>
<!-- Generator: Adobe Illustrator 19.0.0, SVG Export Plug-In . SVG Version: 6.00 Build 0)  -->
<svg version="1.1" id="Layer_1" xmlns="http://www.w3.org/2000/svg" xmlns:xlink="http://www.w3.org/1999/xlink" x="0px" y="0px"
	 viewBox="0 0 512 512" style="enable-background:new 0 0 512 512;" xml:space="preserve">
<path style="fill:#F8F8F9;" d="M205.68,474.26c0,20.842-16.897,37.74-37.74,37.74s-37.74-16.897-37.74-37.74"/>
<path style="fill:#EDEDED;" d="M381.798,474.26c0,20.842-16.897,37.74-37.74,37.74s-37.74-16.897-37.74-37.74"/>
<path style="fill:#D8D8DA;" d="M104.78,115.347c0,0-44.662-79.873-17.79-106.744c26.869-26.872,106.744,17.79,106.744,17.79"/>
<g>
	<path style="fill:#C6C5CA;" d="M318.268,26.392c0,0,79.871-44.661,106.743-17.789c26.872,26.871-17.789,106.743-17.789,106.743"/>
	<path style="fill:#C6C5CA;" d="M419.518,176.118C418.715,86.489,345.819,14.075,256,14.075S93.284,86.489,92.481,176.118h-0.019
		v25.16h327.076v-25.16H419.518z"/>
</g>
<path style="fill:#ACAAB0;" d="M419.538,176.118h-0.02C418.715,86.489,345.819,14.075,256,14.075v187.202h163.538V176.118z"/>
<path style="fill:#D8D8DA;" d="M503.726,278.252c-5.211-63.631-57.062-107.638-116.084-102.73
	c-87.656,6.065-175.626,6.065-263.282,0c-59.023-4.914-110.875,39.104-116.086,102.73c-2.581,33.545-5.16,67.093-7.742,100.639
	c-5.216,63.636,43.884,106.958,109.969,101.626c96.882-6.705,194.113-6.705,290.996,0c66.086,5.336,115.186-37.992,109.971-101.626
	C508.886,345.346,506.307,311.798,503.726,278.252z"/>
<path style="fill:#C6C5CA;" d="M511.468,378.89c-2.581-33.545-5.16-67.093-7.742-100.639
	c-5.211-63.631-57.062-107.638-116.084-102.73c-43.828,3.034-87.734,4.55-131.642,4.55v295.418c48.528,0,97.056,1.676,145.497,5.027
	C467.583,485.853,516.685,442.524,511.468,378.89z"/>
<rect x="161.651" y="265.674" style="fill:#58575D;" width="37.74" height="50.319"/>
<rect x="312.609" y="265.674" style="fill:#454449;" width="37.74" height="50.319"/>
<path style="fill:#58575D;" d="M211.97,146.164h-0.003c-13.872,0-25.157-11.287-25.157-25.16c0.005-13.876,11.292-25.16,25.16-25.16
	c13.873,0,25.16,11.287,25.16,25.16S225.843,146.164,211.97,146.164z"/>
<path style="fill:#454449;" d="M300.029,146.164h-0.003c-13.872,0-25.157-11.287-25.157-25.16
	c0.005-13.876,11.292-25.16,25.16-25.16c13.873,0,25.16,11.287,25.16,25.16S313.902,146.164,300.029,146.164z"/>
<g>
</g>
<g>
</g>
<g>
</g>
<g>
</g>
<g>
</g>
<g>
</g>
<g>
</g>
<g>
</g>
<g>
</g>
<g>
</g>
<g>
</g>
<g>
</g>
<g>
</g>
<g>
</g>
<g>
</g>
</svg>
